<?xml version="1.0" encoding="utf-8"?>
<!-- Generator: Adobe Illustrator 21.0.0, SVG Export Plug-In . SVG Version: 6.00 Build 0)  -->
<svg version="1.1" id="图层_1" xmlns="http://www.w3.org/2000/svg" xmlns:xlink="http://www.w3.org/1999/xlink" x="0px" y="0px"
	 viewBox="0 0 784 64" style="enable-background:new 0 0 784 64;" xml:space="preserve">
<style type="text/css">
	.st0{fill:#FFFFFF;}
</style>
<g>
	<g>
		<polygon class="st0" points="28.6,0.5 28.6,13.2 33.7,13.2 33.7,5.6 74.8,5.6 74.8,58.4 33.7,58.4 33.7,50.7 28.6,50.7 28.6,63.5 
			79.9,63.5 79.9,0.5 		"/>
		<path class="st0" d="M33.7,17.3h-5.1v23.1c0,4,1,6.2,6.4,6.2h5.3v-4.1h-3.9c-2.1,0-2.8,0-2.8-2.6V26h6.8v-4.1h-6.8V17.3z"/>
		<path class="st0" d="M5.2,22.2c0,0.6,0,3.4,0,4.1c14-2.5,14.7-0.1,14.7,3.5c0,0.4,0,0.9,0,1.1C7.5,30.1,3.6,32.7,3.6,38.5
			c0,7.7,5.4,9.3,21.5,7.5c0-3.4,0-16.6,0-16.6C25,21.3,18.7,19.9,5.2,22.2z M19.9,34.9v7.7c-9.4,0.8-11.1-1-11.1-3.9
			C8.8,35.7,11,34.2,19.9,34.9z"/>
		<path class="st0" d="M44.6,22.2c0,0.6,0,3.4,0,4.1c14-2.5,14.7-0.1,14.7,3.5c0,0.4,0,0.9,0,1.1C46.9,30.1,43,32.7,43,38.5
			c0,7.7,5.4,9.3,21.5,7.5c0-3.4,0-16.6,0-16.6C64.4,21.3,58.1,19.9,44.6,22.2z M59.3,34.9v7.7c-9.4,0.8-11.1-1-11.1-3.9
			C48.3,35.7,50.5,34.2,59.3,34.9z"/>
	</g>
	<g>
		<path class="st0" d="M107,55V10.6h43v44.3h-6.8v-1.7h-29.5V55H107z M143.2,16.4h-29.5v31.1h29.5V16.4z M140.5,33.5H137
			c1.3,1.1,2.6,2.3,3.9,3.6l-2.5,2.3h3.2v5.5H115v-5.5h9.6v-5.9h-8.4V28h8.4v-3.4h-9.2v-5.5h25.7v5.5H131V28h9.6V33.5z M132.3,35.8
			l2.7-2.4H131v5.9h4.6C134.3,38,133.2,36.8,132.3,35.8z"/>
		<path class="st0" d="M193.7,26.3l3.7,5.3L190,35c2.2,5.4,5.6,9.6,10.4,12.3c-2,1.8-3.7,3.5-5.3,5.1c-4-3.1-7.4-8.2-10-15.2
			l-2.1,0.9c0.8,2.4,1.2,4.8,1.2,7.2c0,2-0.2,3.7-0.6,4.9c-0.4,1.3-1.1,2.3-2.1,3.1c-1,0.8-2,1.3-3.3,1.5c-1.2,0.2-4.2,0.3-8.9,0.3
			c-0.5-2.2-1-4.1-1.5-5.9c-3.3,1.7-6.9,3.2-10.8,4.5c-1.1-1.9-2.3-3.8-3.7-5.6c9.3-2.3,16.8-5.7,22.7-10.2
			c-0.3-0.6-0.5-1.2-0.9-1.8c-5.1,3.6-11,6.3-17.6,8.1l-3.2-4.9c7.4-1.6,13.6-3.8,18.5-6.8c-0.4-0.5-0.7-1-1.2-1.5
			c-4.2,2-8.9,3.6-14,4.9c-1-1.7-2-3.3-3.1-4.8c6.4-1.1,11.8-2.8,16.3-5h-7.8v-5.2h27.4v5.2h-10.3c-1,0.7-2,1.4-3.1,2
			c1.4,1.6,2.5,3.2,3.5,4.9C185.9,30.7,190.3,28.4,193.7,26.3z M171.8,9.6l8.1-1c0.4,1.3,0.8,2.7,1.3,4.3h17.7v11.9h-6.5v-6.5h-31
			v6.5h-6.5V12.8h18.3C172.7,11.5,172.2,10.4,171.8,9.6z M168.5,49c2,0.2,3.6,0.3,4.8,0.3c2.8,0,4.3-1.4,4.3-4.2
			c0-0.6-0.1-1.2-0.2-1.9C174.9,45.4,171.9,47.3,168.5,49z"/>
		<path class="st0" d="M202.7,49.9l-1.1-6.4l2.4-0.3V16.9h-1.9v-5.6h20.5v5.6h-2v23.8l2.7-0.5c-0.2,2.4-0.3,4.4-0.4,6l-2.4,0.4v8.6
			h-5.7v-7.6L202.7,49.9z M209.7,21.8h5.3v-4.9h-5.3V21.8z M209.7,31.8h5.3v-4.9h-5.3V31.8z M214.9,41.7v-4.8h-5.3v5.6L214.9,41.7z
			 M228.5,38.7l5.2,2.4c-2.7,5.8-5.3,10.5-7.7,14.2c-2-1.4-3.7-2.5-5.1-3.2C224,48,226.5,43.5,228.5,38.7z M224.1,11.7H246v24.1
			h-21.9V11.7z M240,17.4h-9.8v12.8h9.8V17.4z M241.1,38.8c2.7,4.6,5.3,9.1,7.6,13.6l-5.4,2.7c-2.4-5.2-4.7-9.8-7.1-13.9L241.1,38.8
			z"/>
		<path class="st0" d="M263.6,9.6h6.9v37.1h6V9.6h6.8v25.5c2.6-5.1,5.1-11,7.5-17.6l6.1,2.6c-2.4,6-5.3,12.5-8.6,19.4l-5-2.3v9.5
			h13.6v6.5h-46.6v-6.5h13.3v-9.3l-5.3,2.3c-2.6-7.3-5.2-14.1-7.7-20.2l5.7-2.6c2.7,6.1,5.2,12,7.4,17.7V9.6z"/>
		<path class="st0" d="M301.1,31.5l-2.8-6.4c3.9-2.1,7.5-4.2,10.8-6.3l2.7,5.9C307.5,27.3,304,29.6,301.1,31.5z M319,38.5h6.9
			c-0.3,1.9-0.7,3.6-1.3,5.2c5.2,1.4,11.7,3.3,19.5,5.7l-3.2,6.1c-4.2-1.6-10.7-3.8-19.4-6.7c-3.1,3.6-9.7,5.8-19.7,6.7
			c-0.8-1.8-1.9-4-3.2-6.5c6-0.3,10.8-1.1,14.5-2.5C316.7,45.2,318.7,42.5,319,38.5z M299.3,13.5l3.9-4.8c3.3,2.1,5.8,3.9,7.5,5.2
			l-4.2,5.3C304.3,17.2,301.9,15.3,299.3,13.5z M344,11.8v4.5l-3.2,5.8l-5-1.8l1.5-3.1h-6.9c-0.1,0.5-0.3,1.1-0.4,1.6
			c2.9,4.2,8,6.5,15.2,7.1c-1.1,2.3-2,4.2-2.7,5.8c-7.1-0.9-12.1-3.5-14.9-7.6c-2.6,3.9-6.9,6.4-12.9,7.5h25.1v13.3h-6.6v-7.6h-22.6
			v8.2h-6.6V31.5h8.6l-2.9-5c8.7-1.1,13.5-4.2,14.5-9.3h-5.2c-1.2,1.9-2.4,3.6-3.6,5.1c-1.4-0.9-3.1-2-5.2-3.2
			c2.9-3.1,5.1-6.6,6.6-10.5l6.5,0.4c-0.4,1-0.9,1.9-1.3,2.8H344z"/>
		<path class="st0" d="M346.6,36.1c2.5-4.1,4.3-8.4,5.5-12.7h-5.2v-6.1h5.6V8.9h6v8.3h4.7v3.2c3.4-3.6,6.1-7.6,8.2-11.9l6.7,1
			c-0.7,1.3-1.4,2.6-2.1,3.8h15.4v5.4c-2,3.5-4.5,6.4-7.6,8.8c2.7,0.9,6,1.6,9.8,2.2c-0.6,1.9-1.1,4-1.5,6.1
			c-5.8-1.2-10.6-2.8-14.4-4.7c-3.8,1.8-8.5,3.4-14.2,4.7l-0.5-1.2l-1.9,2.5c-0.8-0.7-1.7-1.5-2.6-2.2v20.3h-6V35.9
			c-1.2,3-2.7,5.9-4.4,8.8C347.6,41.6,347.1,38.7,346.6,36.1z M362,30.3c4-0.8,7.4-1.8,10.2-2.9c-1.4-1.2-2.6-2.4-3.7-3.8
			c-1.1,1.1-2.1,2.2-3.3,3.2c-1-1.3-2-2.5-3-3.5h-3.7V28L362,30.3z M364.9,55.2V35.9h25.4v19.2h-6.4v-2.4h-12.7v2.5H364.9z
			 M383.9,41.8h-12.7v5.1h12.7V41.8z M372.2,19.1c1.6,2.3,3.5,4.2,5.5,5.6c2.6-1.7,4.5-3.6,5.9-6h-11.3L372.2,19.1z"/>
		<path class="st0" d="M425.6,20.6l2.7-2.6h-5.1c-0.8,1.5-1.6,3-2.5,4.5h6l-2.6,1.8c4.8,3.3,10.8,5.8,18.1,7.6
			c-1.2,1.8-2.3,3.7-3.4,5.8c-3.3-1.2-6.5-2.6-9.6-4.2v3.1h-7.6v2.5h16.1v5h-8.3l4.6,2.2c-0.6,0.8-1.3,1.6-1.9,2.5h8.5v5.1h-43.9
			v-5.1h8.6c-0.5-0.8-1.1-1.7-1.7-2.6l4.6-2h-8.7v-5h15.9v-2.5h-7.5V34c-3,1.4-6.2,2.8-9.5,4.2c-1-1.9-2.2-3.7-3.5-5.6
			c6.6-1.7,12.3-4,16.9-6.9h-3.5V9h6v15.1c0.7-0.5,1.3-1,2-1.5h3c-1.3-1-2.6-1.9-3.9-2.7c2.6-3.9,4.5-7.6,5.5-11h6.2
			c-0.4,1.4-0.9,2.8-1.4,4.1h15.3v5h-9.7c2.2,1.6,4.2,3.2,6,4.7l-4.1,4.1C431.1,25,428.6,23,425.6,20.6z M404,25.2H398V10.3h5.9
			V25.2z M411.5,48.8h3.7v-4.6h-6.6C409.5,45.6,410.5,47.1,411.5,48.8z M419,27.6c-2.2,1.4-4.5,2.8-7,4.2h13.7
			C423.4,30.5,421.1,29.1,419,27.6z M428.4,44.2h-6.7v4.6h3.8C426.5,47.3,427.5,45.7,428.4,44.2z"/>
		<path class="st0" d="M486.7,35.8v5.8h-15.8V48c5.1,0.1,11.6,0.1,19.4-0.2c-0.9,2.6-1.6,4.7-2,6.4c-11.2,0-19.3-0.2-24.4-0.5
			c-5.1-0.3-8.7-2.5-10.7-6.4c-1.6,3.2-3.6,6-5.9,8.1c-1.4-2.1-2.7-3.9-3.9-5.5c3.9-4,6.5-9.7,7.6-17l6.3,0.8
			c-0.4,2.4-0.9,4.7-1.5,6.8c1.6,4.1,4.4,6.5,8.5,7.2V30.7h-19.5v-5.8h44.5v5.8h-18.2v5.1H486.7z M462.2,10.2l7.2-1.7
			c0.6,1.6,1.3,3.4,2,5.4h17v9.3h-6.5v-3.5h-30v3.5h-6.5v-9.3h18.2L462.2,10.2z"/>
		<path class="st0" d="M492.1,21.9h16.2v-3.8h-12.4v-5.4h12.4V8.5h6.4v4.2h11.3v4.6c2.1-1.9,4.2-4,6.2-6.3l4.7,3.6
			c-2.4,2.6-4.9,5.1-7.6,7.3h9.3v5.4h-16.5c-1.4,0.9-2.9,1.8-4.4,2.7h16.9v5.3h-20.5l-0.6,2.9h17.9c-0.4,3.6-0.8,6.6-1.2,9
			c-0.4,2.5-1.4,4.3-3.2,5.6c-1.7,1.3-4.1,1.9-7.2,1.9c-2.9,0-6.1,0-9.6-0.1c-0.4-2.5-0.9-4.6-1.4-6.4c3,0.3,6.5,0.4,10.4,0.4
			c1.3,0,2.3-0.2,3-0.7c0.7-0.5,1.2-1.1,1.4-1.9c0.2-0.8,0.3-1.7,0.5-2.6h-18.7l2.1-8.2h-1c-4.1,1.7-8.4,3.1-13,4.5
			c-0.4-1.7-1.1-3.6-1.9-5.9c8.1-1.8,14.9-4,20.2-6.6h-19.9V21.9z M525.2,18.1h-10.5v3.8h5.9C522.1,20.7,523.7,19.5,525.2,18.1z"/>
		<path class="st0" d="M557.2,31.6h6.8c-0.2,1.5-0.4,3-0.6,4.4h19.9l-0.8,10.8c-0.2,1.8-0.7,3.3-1.6,4.4c-0.9,1.2-2.1,2-3.7,2.6
			c-1.6,0.6-4.6,0.8-9.2,0.8c-1.6,0-3.2,0-5-0.1c-0.3-1.9-0.8-4-1.5-6.4c3.5,0.3,6.5,0.4,9.1,0.4c1.4,0,2.4-0.2,3.2-0.6
			c0.8-0.4,1.2-1,1.4-1.7c0.2-0.7,0.3-2.2,0.4-4.5h-13.8c-2.4,6.6-8.2,11.2-17.4,13.7c-1.2-1.7-2.7-3.5-4.4-5.4
			c7.2-1.7,12-4.5,14.4-8.3h-12.7V36h14.8C556.8,34.6,557,33.1,557.2,31.6z M583,12.7v5.1c-3,2.9-6.7,5.4-10.9,7.6
			c4.5,1,9.4,1.5,14.9,1.7c-1,2.3-1.8,4.4-2.5,6.3c-8.1-0.8-15-2.2-20.7-4.3c-6.1,2.2-13.1,3.8-21,5c-0.7-1.7-1.5-3.6-2.5-5.9
			c5.9-0.6,11.2-1.4,16-2.6c-2.2-1.3-4.2-2.8-5.9-4.4c-1.8,1.5-3.8,2.9-5.9,4.2c-1.1-1.4-2.3-3-3.8-4.8c6.1-3.5,10.7-7.4,13.6-11.7
			h7.1c-0.9,1.4-1.9,2.7-2.9,4H583z M564,22.9c3.6-1.4,6.8-3.1,9.6-5h-18.4C557.7,19.9,560.7,21.6,564,22.9z"/>
		<path class="st0" d="M589.9,21.5h2.5c-0.7-0.9-2-2.4-3.8-4.3c3.4-2.5,5.9-5.4,7.5-8.6h6.5c-0.5,1.1-1,2.2-1.6,3.3h12.2v4.5H604
			c0.9,1,1.9,2.1,2.8,3.1l-2.7,2h4.6c-0.3-0.8-0.6-1.7-0.8-2.5l5.3-0.9c0.3,1.1,0.7,2.2,1,3.4H625c-1.3-1.6-2.4-3-3.4-4l1.5-1.1H621
			c-1,1.6-2.2,3.2-3.5,4.6c-0.9-0.7-2.6-1.8-5-3.4c2.3-2.5,4.1-5.4,5.6-8.9h6.6c-0.4,1.1-0.8,2.2-1.3,3.3h10.9v4.5h-7.1
			c0.8,0.9,1.7,1.8,2.5,2.7l-3.3,2.4h7.7v6.8h-6.4v-2h-31.3v2h-6.4V21.5z M592.4,21.5h9.5c-0.8-1.1-1.8-2.3-3-3.6l1.9-1.5h-3.1
			C596.2,18.3,594.4,20,592.4,21.5z M629.3,29.2v11.2h-28.6v2.1h30.1v12.9h-6.1v-1.5h-24v1.5h-6.4V29.2H629.3z M623.2,36.1v-2.5
			h-22.5v2.5H623.2z M624.7,46.8h-24v2.7h24V46.8z"/>
		<path class="st0" d="M638,52.7l-1.3-6.7l5.6-1.3V33.2h-4.5v-5.9h4.5v-9.9h-4.7v-5.9H653v5.9h-4.7v9.9h4.4v5.9h-4.4v10.1
			c1.7-0.5,3.3-0.9,4.9-1.4c-0.1,2.2-0.1,4.4,0,6.5h11.7v-4.1h-10.8v-5.4h10.8v-3.4h-10.5V10.9h27.1v24.5h-10.5v3.4h10.8v5.4h-10.8
			v4.1h12.8v5.4h-32.4v-5C647.2,49.9,642.8,51.2,638,52.7z M660.3,20.7h4.6v-4.5h-4.6V20.7z M660.3,30.1h4.6v-4.5h-4.6V30.1z
			 M675.5,16.2h-4.6v4.5h4.6V16.2z M675.5,30.1v-4.5h-4.6v4.5H675.5z"/>
		<path class="st0" d="M696.2,40.7l4.8,4.2c-3.6,3.3-7.4,6.4-11.7,9.2c-1.4-1.9-2.9-3.5-4.3-5.1C689.1,46.7,692.8,44,696.2,40.7z
			 M687,11.8c15.4,0.1,29.4-0.6,42-1.8l0.9,5.2c-6.3,0.6-12.9,1.1-19.9,1.5c-3.3,2-6.7,3.9-10.4,5.7l15.6-0.7
			c2.3-1.3,4.7-2.7,7.2-4.2l4.4,4.4c-8.8,4.9-18.2,9.2-28.1,12.9c6.8-0.3,13.6-0.7,20.5-1.2c-1.2-1.2-2.4-2.3-3.4-3.3l4.4-3.5
			c2.4,2.1,6.3,5.8,11.5,11.1l-4.5,4.1c-1.1-1.2-2.2-2.4-3.2-3.5l-11.4,0.4V50c0,1.6-0.5,2.8-1.4,3.6c-0.9,0.8-2.3,1.3-4.2,1.4
			c-1.9,0.1-4.4,0.1-7.6,0.1c-0.3-2.3-0.7-4.4-1.2-6.4c1.5,0.1,3.2,0.2,4.9,0.2c1.3,0,2.1-0.1,2.5-0.4c0.4-0.3,0.6-0.8,0.6-1.6v-7.6
			c-7,0.4-12.4,0.8-16.2,1.2l-1.7-5.9c5.3-2,11.1-4.6,17.3-7.8c-6.2,0.4-11.1,0.8-14.5,1.3l-1.7-5.8c3.4-1.3,7-3,10.7-5.2l-12,0.4
			C687.8,15.7,687.4,13.8,687,11.8z M720.2,40.2c3.5,2.4,7.4,5.3,11.8,8.7l-4.3,4.5c-3.4-2.9-7.2-5.9-11.4-9.1L720.2,40.2z"/>
		<path class="st0" d="M742.2,36.3l7-0.8c-0.3,2-0.4,3.7-0.3,5.4c-5.1,0.3-9.4,0.7-12.9,1.3l-1.5-5.2c1.8-1.8,4-4.7,6.6-8.5
			c-2.5,0.2-4.5,0.4-6.1,0.6l-1.7-5.3c3-4.1,5.7-9.2,8.1-15.2l6.2,2.5c-2.3,4.3-4.8,8.4-7.5,12.2c1.3,0,2.8-0.1,4.5-0.2l2.1-3.6
			l4.9,2.6C748.4,27.2,745.3,31.9,742.2,36.3z M774.8,40.8c1.9,0.9,3.8,1.7,5.7,2.4c-0.4,4.8-1.2,7.9-2.2,9.3c-1.1,1.4-2.7,2-5,2
			h-2.8c-3.6,0-5.4-2-5.5-6V33.3l-3.8,0.3c-0.2,6.9-1.2,11.9-3.2,15.1c-1.9,3.2-4.3,5.4-7,6.8c-1.3-1.5-2.9-3.1-4.7-4.9
			c-4.2,0.4-8.2,0.9-11.9,1.5l-0.5-6.3c3.1-0.2,8.5-0.8,16.1-1.7c-0.1,1.2-0.1,2.4-0.1,3.8c3.4-2.3,5.2-6.8,5.4-13.7
			c-1.8,0.2-3.2,0.4-4.2,0.6l-1.7-5.8c2.5-1.6,5.2-4.9,8.1-10h-8v-5.4h10.5c-0.5-1.3-1.1-2.6-1.8-4l7-1.3c0.8,1.7,1.7,3.5,2.4,5.2
			h11.9v5.4h-15.1c-2.1,3.2-4.4,6.4-7.1,9.5c3.9-0.1,8.3-0.4,13.1-0.6c-1.1-1.6-2.2-3.3-3.4-4.9l4.7-2.7c3.3,4.4,6.2,8.5,8.6,12.3
			l-5.1,3.1c-0.5-1-1.1-1.9-1.7-2.9L771,33v13.6c0,1.2,0.4,1.8,1.2,1.8h0.4c0.7,0,1.2-0.4,1.5-1.2C774.3,46.5,774.5,44.3,774.8,40.8
			z"/>
	</g>
</g>
</svg>
