<?xml version="1.0" encoding="utf-8"?>
<!-- Generator: Adobe Illustrator 21.0.0, SVG Export Plug-In . SVG Version: 6.00 Build 0)  -->
<svg version="1.1" id="图层_1" xmlns="http://www.w3.org/2000/svg" xmlns:xlink="http://www.w3.org/1999/xlink" x="0px" y="0px"
	 viewBox="0 0 857 70" style="enable-background:new 0 0 857 70;" xml:space="preserve">
<style type="text/css">
	.st0{fill:#FFFFFF;}
</style>
<g>
	<g>
		<polygon class="st0" points="30.5,0.5 30.5,14.4 36.1,14.4 36.1,6.1 81,6.1 81,63.9 36.1,63.9 36.1,55.5 30.5,55.5 30.5,69.5 
			86.6,69.5 86.6,0.5 		"/>
		<path class="st0" d="M36.1,18.9h-5.6v25.3c0,4.3,1.1,6.8,7,6.8h5.8v-4.4h-4.2c-2.3,0-3-0.1-3-2.8V28.4h7.5v-4.5h-7.5V18.9z"/>
		<path class="st0" d="M4.8,24.2c0,0.7,0,3.7,0,4.5c15.3-2.7,16.1-0.1,16.1,3.8c0,0.4,0,1,0,1.3C7.4,33,3.1,35.8,3.1,42.1
			c0,8.4,5.9,10.2,23.5,8.2c0-3.7,0-18.1,0-18.1C26.6,23.2,19.6,21.7,4.8,24.2z M21,38.1v8.4c-10.3,0.9-12.1-1.1-12.1-4.2
			C8.8,39.1,11.2,37.5,21,38.1z"/>
		<path class="st0" d="M48,24.2c0,0.7,0,3.7,0,4.5c15.3-2.7,16.1-0.1,16.1,3.8c0,0.4,0,1,0,1.3c-13.5-0.9-17.9,1.9-17.9,8.3
			c0,8.4,5.9,10.2,23.5,8.2c0-3.7,0-18.1,0-18.1C69.7,23.2,62.8,21.7,48,24.2z M64.2,38.1v8.4C53.9,47.4,52,45.4,52,42.3
			C52,39.1,54.4,37.5,64.2,38.1z"/>
	</g>
	<g>
		<path class="st0" d="M116.3,60.2V11.6h47v48.5H156v-1.8h-32.3v1.9H116.3z M156,17.9h-32.3v34H156V17.9z M153.1,36.6h-3.9
			c1.4,1.2,2.9,2.6,4.3,4l-2.7,2.5h3.5v6h-29.2v-6h10.5v-6.5h-9.2v-6h9.2v-3.7h-10v-6h28.2v6h-11.2v3.7h10.5V36.6z M144,39.2l3-2.6
			h-4.4v6.5h5.1C146.3,41.5,145.1,40.2,144,39.2z"/>
		<path class="st0" d="M211.4,28.7l4,5.8l-8.2,3.8c2.4,6,6.2,10.5,11.4,13.5c-2.1,2-4.1,3.9-5.8,5.6c-4.4-3.4-8.1-9-11-16.6l-2.2,1
			c0.9,2.6,1.3,5.2,1.3,7.9c0,2.2-0.2,4-0.7,5.4c-0.4,1.4-1.2,2.5-2.2,3.4c-1.1,0.9-2.2,1.4-3.6,1.7c-1.3,0.2-4.6,0.3-9.8,0.3
			c-0.5-2.4-1.1-4.5-1.6-6.4c-3.6,1.8-7.5,3.5-11.8,4.9c-1.2-2.1-2.5-4.1-4-6.2c10.2-2.5,18.4-6.2,24.8-11.2c-0.3-0.7-0.6-1.3-1-2
			c-5.6,3.9-12.1,6.9-19.3,8.9l-3.5-5.4c8.2-1.7,14.9-4.2,20.3-7.4c-0.4-0.6-0.8-1.1-1.3-1.7c-4.6,2.2-9.7,4-15.4,5.4
			c-1.1-1.9-2.2-3.6-3.4-5.3c7-1.2,13-3.1,17.8-5.4h-8.6V23h30v5.7h-11.3c-1.1,0.8-2.2,1.5-3.4,2.2c1.5,1.8,2.7,3.6,3.8,5.4
			C202.8,33.5,207.6,31,211.4,28.7z M187.3,10.4l8.9-1.1c0.4,1.4,0.9,2.9,1.4,4.7H217v13h-7.1v-7.1h-34V27h-7.1V14h20.1
			C188.3,12.6,187.8,11.4,187.3,10.4z M183.8,53.7c2.2,0.2,3.9,0.3,5.3,0.3c3.1,0,4.7-1.6,4.7-4.7c0-0.6-0.1-1.3-0.2-2
			C190.7,49.6,187.4,51.8,183.8,53.7z"/>
		<path class="st0" d="M221.2,54.6l-1.2-7l2.6-0.3V18.5h-2.1v-6.1H243v6.1h-2.2v26.1l3-0.5c-0.2,2.7-0.4,4.9-0.4,6.6l-2.6,0.4v9.4
			h-6.2v-8.3L221.2,54.6z M228.8,23.9h5.8v-5.4h-5.8V23.9z M228.8,34.8h5.8v-5.4h-5.8V34.8z M234.6,45.6v-5.2h-5.8v6.1L234.6,45.6z
			 M249.4,42.3l5.7,2.6c-3,6.4-5.8,11.5-8.5,15.5c-2.2-1.6-4.1-2.7-5.5-3.5C244.5,52.5,247.2,47.6,249.4,42.3z M244.6,12.8h24v26.4
			h-24V12.8z M262,19h-10.8v14H262V19z M263.2,42.4c3,5,5.8,10,8.4,14.9l-5.9,3c-2.6-5.7-5.2-10.8-7.8-15.2L263.2,42.4z"/>
		<path class="st0" d="M287.8,10.4h7.5v40.6h6.6V10.4h7.4v27.9c2.8-5.6,5.5-12,8.2-19.3l6.7,2.8c-2.6,6.5-5.8,13.6-9.4,21.3
			l-5.5-2.6v10.4h14.9v7.1h-51.1v-7.1h14.6V40.8l-5.8,2.5c-2.8-8-5.7-15.4-8.5-22.1l6.2-2.8c3,6.7,5.7,13.1,8.1,19.3V10.4z"/>
		<path class="st0" d="M329,34.5l-3.1-7c4.3-2.3,8.2-4.6,11.8-6.9l2.9,6.5C336,29.9,332.1,32.4,329,34.5z M348.6,42.1h7.5
			c-0.3,2.1-0.8,4-1.4,5.7c5.7,1.5,12.8,3.6,21.4,6.2l-3.5,6.7c-4.6-1.7-11.7-4.2-21.3-7.3c-3.4,3.9-10.6,6.4-21.6,7.4
			c-0.9-2-2-4.3-3.5-7.1c6.6-0.3,11.9-1.2,15.8-2.7C346,49.4,348.2,46.5,348.6,42.1z M327,14.8l4.2-5.3c3.6,2.3,6.4,4.2,8.2,5.7
			l-4.6,5.8C332.5,18.8,329.8,16.7,327,14.8z M375.9,12.9v4.9l-3.5,6.3l-5.4-2l1.7-3.4h-7.6c-0.1,0.6-0.3,1.2-0.5,1.7
			c3.2,4.5,8.8,7.2,16.7,7.8c-1.2,2.5-2.2,4.6-3,6.4c-7.8-1-13.2-3.8-16.3-8.4c-2.8,4.3-7.5,7-14.1,8.2h27.5V49h-7.2v-8.4h-24.7v8.9
			h-7.2V34.4h9.4l-3.2-5.4c9.5-1.2,14.8-4.6,15.9-10.2h-5.7c-1.3,2.1-2.6,3.9-4,5.6c-1.5-1-3.4-2.2-5.7-3.5
			c3.2-3.4,5.6-7.2,7.2-11.5l7.1,0.5c-0.5,1.1-1,2.1-1.4,3.1H375.9z"/>
		<path class="st0" d="M378.7,39.5c2.7-4.5,4.7-9.2,6.1-14h-5.7v-6.7h6.2V9.7h6.6v9.1h5.2v3.5c3.7-4,6.7-8.3,9-13.1l7.3,1.1
			c-0.7,1.4-1.5,2.8-2.3,4.2h16.8v5.9c-2.1,3.8-4.9,7-8.4,9.6c2.9,1,6.5,1.8,10.8,2.5c-0.7,2.1-1.2,4.3-1.6,6.7
			c-6.4-1.4-11.6-3.1-15.7-5.2c-4.2,2-9.4,3.7-15.6,5.2l-0.6-1.3l-2.1,2.7c-0.9-0.8-1.9-1.6-2.8-2.4v22.2h-6.6V39.3
			c-1.3,3.3-2.9,6.5-4.9,9.7C379.8,45.5,379.3,42.3,378.7,39.5z M395.6,33.1c4.3-0.9,8.1-2,11.1-3.1c-1.5-1.3-2.9-2.7-4.1-4.2
			c-1.2,1.2-2.4,2.4-3.6,3.5c-1.1-1.4-2.2-2.7-3.3-3.8h-4v5.1L395.6,33.1z M398.8,60.5V39.3h27.8v21h-7v-2.6h-13.9v2.7H398.8z
			 M419.7,45.7h-13.9v5.6h13.9V45.7z M406.8,20.9c1.8,2.6,3.8,4.6,6.1,6.2c2.8-1.8,5-4,6.5-6.5h-12.3L406.8,20.9z"/>
		<path class="st0" d="M465.3,22.6l2.9-2.8h-5.5c-0.8,1.7-1.7,3.3-2.7,5h6.6l-2.9,2c5.2,3.6,11.9,6.4,19.9,8.3
			c-1.3,2-2.5,4.1-3.7,6.3c-3.6-1.3-7.1-2.8-10.5-4.5v3.4H461v2.7h17.6v5.5h-9.1l5,2.4c-0.7,0.9-1.4,1.8-2.1,2.7h9.3V59h-48.1v-5.6
			h9.4c-0.6-0.9-1.2-1.9-1.9-2.9l5-2.2h-9.6v-5.5H454v-2.7h-8.2v-3c-3.3,1.6-6.7,3.1-10.4,4.6c-1.1-2-2.4-4.1-3.9-6.2
			c7.3-1.9,13.5-4.4,18.6-7.5h-3.9V9.8h6.6v16.5c0.7-0.5,1.4-1.1,2.2-1.7h3.3c-1.4-1.1-2.9-2.1-4.3-2.9c2.9-4.3,4.9-8.3,6-12h6.8
			c-0.4,1.5-1,3-1.6,4.5h16.8v5.5h-10.7c2.4,1.8,4.7,3.5,6.6,5.2l-4.4,4.4C471.3,27.4,468.6,25.1,465.3,22.6z M441.6,27.6h-6.5V11.2
			h6.5V27.6z M449.9,53.4h4.1v-5.1h-7.2C447.7,49.9,448.8,51.6,449.9,53.4z M458,30.2c-2.4,1.6-4.9,3.1-7.7,4.5h15
			C462.9,33.3,460.4,31.8,458,30.2z M468.3,48.4H461v5.1h4.1C466.3,51.7,467.4,50,468.3,48.4z"/>
		<path class="st0" d="M532.2,39.2v6.4H515v7c5.6,0.1,12.7,0.1,21.3-0.2c-1,2.9-1.7,5.2-2.2,7c-12.3,0-21.2-0.2-26.8-0.6
			c-5.6-0.4-9.5-2.7-11.8-7c-1.8,3.5-3.9,6.5-6.4,8.9c-1.6-2.3-3-4.3-4.3-6c4.3-4.4,7.1-10.6,8.3-18.7l6.9,0.8
			c-0.4,2.7-1,5.1-1.7,7.4c1.8,4.5,4.9,7.1,9.3,7.8V33.6h-21.4v-6.4h48.8v6.4h-20v5.6H532.2z M505.4,11.1l7.9-1.9
			c0.7,1.8,1.4,3.8,2.2,5.9h18.7v10.2H527v-3.9h-32.9v3.9H487V15.2h19.9L505.4,11.1z"/>
		<path class="st0" d="M538.1,23.9h17.8v-4.1h-13.6v-5.9h13.6V9.3h7v4.6h12.4v5c2.3-2.1,4.5-4.4,6.8-7l5.2,3.9
			c-2.6,2.9-5.4,5.6-8.3,8h10.2v5.9h-18.1c-1.6,1-3.2,2-4.8,2.9h18.6v5.8h-22.4l-0.6,3.2h19.6c-0.4,3.9-0.9,7.2-1.3,9.9
			s-1.6,4.7-3.5,6.1c-1.9,1.4-4.5,2.1-7.9,2.1c-3.2,0-6.7,0-10.5-0.1c-0.4-2.7-1-5-1.6-7c3.3,0.3,7.1,0.5,11.4,0.5
			c1.4,0,2.5-0.2,3.3-0.7c0.8-0.5,1.3-1.2,1.5-2.1c0.2-0.9,0.4-1.8,0.5-2.8h-20.5l2.4-9h-1.1c-4.5,1.8-9.2,3.4-14.3,4.9
			c-0.5-1.8-1.2-4-2.1-6.4c8.9-1.9,16.3-4.4,22.2-7.2h-21.7V23.9z M574.4,19.8h-11.5v4.1h6.4C571,22.7,572.7,21.3,574.4,19.8z"/>
		<path class="st0" d="M609.4,34.5h7.4c-0.2,1.7-0.4,3.3-0.7,4.9H638l-0.9,11.8c-0.2,2-0.7,3.6-1.7,4.9c-1,1.3-2.3,2.2-4,2.8
			c-1.7,0.6-5,0.9-10,0.9c-1.7,0-3.5,0-5.5-0.1c-0.3-2-0.9-4.4-1.7-7c3.8,0.3,7.1,0.5,10,0.5c1.5,0,2.6-0.2,3.5-0.7
			c0.8-0.4,1.3-1.1,1.5-1.9c0.2-0.8,0.4-2.5,0.5-4.9h-15.1c-2.6,7.3-9,12.3-19,15c-1.3-1.8-3-3.8-4.9-5.9c7.9-1.9,13.2-4.9,15.8-9.1
			h-14v-6.3h16.2C609,37.9,609.2,36.2,609.4,34.5z M637.7,13.9v5.6c-3.3,3.1-7.3,5.9-11.9,8.3c4.9,1.1,10.3,1.7,16.3,1.8
			c-1.1,2.6-2,4.8-2.8,6.9c-8.8-0.8-16.4-2.4-22.7-4.8c-6.7,2.4-14.3,4.2-23,5.4c-0.7-1.8-1.7-4-2.8-6.5c6.4-0.6,12.3-1.6,17.5-2.9
			c-2.4-1.5-4.6-3.1-6.4-4.9c-2,1.6-4.2,3.2-6.4,4.6c-1.2-1.6-2.6-3.3-4.2-5.2c6.7-3.8,11.7-8.1,14.9-12.8h7.8c-1,1.5-2,3-3.2,4.4
			H637.7z M616.8,25.1c4-1.5,7.5-3.4,10.5-5.5h-20.1C610,21.8,613.2,23.6,616.8,25.1z"/>
		<path class="st0" d="M645.2,23.5h2.7c-0.8-1-2.2-2.6-4.1-4.7c3.8-2.8,6.5-5.9,8.2-9.4h7.1c-0.6,1.2-1.1,2.4-1.8,3.6h13.3v4.9h-9.9
			c1,1.1,2.1,2.3,3.1,3.4l-3,2.2h5c-0.3-0.9-0.6-1.8-0.9-2.7l5.8-1c0.4,1.2,0.8,2.4,1.1,3.7h11.9c-1.4-1.8-2.7-3.3-3.7-4.4l1.6-1.2
			h-2.3c-1.1,1.8-2.4,3.5-3.8,5c-1-0.8-2.8-2-5.5-3.8c2.5-2.7,4.5-6,6.1-9.7h7.2c-0.4,1.2-0.9,2.4-1.4,3.6h11.9v4.9h-7.8
			c0.9,1,1.8,2,2.7,3l-3.6,2.6h8.4V31h-7v-2.2h-34.3V31h-7V23.5z M648,23.5h10.4c-0.9-1.2-2-2.5-3.3-4l2.1-1.7h-3.4
			C652.2,20,650.2,21.9,648,23.5z M688.4,31.9v12.3h-31.3v2.3h33v14.1h-6.7V59h-26.3v1.7h-7V31.9H688.4z M681.7,39.5v-2.8h-24.6v2.8
			H681.7z M683.4,51.3h-26.3v3h26.3V51.3z"/>
		<path class="st0" d="M697.9,57.7l-1.4-7.3l6.2-1.4V36.3h-5v-6.4h5V19h-5.2v-6.5h17V19h-5.2v10.9h4.8v6.4h-4.8v11
			c1.8-0.5,3.6-1,5.4-1.5c-0.1,2.4-0.2,4.8-0.1,7.1h12.8v-4.5h-11.8v-5.9h11.8v-3.7h-11.5V11.9h29.7v26.8H734v3.7h11.8v5.9H734v4.5
			H748v5.9h-35.5v-5.5C708,54.6,703.1,56,697.9,57.7z M722.3,22.6h5.1v-4.9h-5.1V22.6z M722.3,33h5.1v-5h-5.1V33z M739,17.7H734v4.9
			h5.1V17.7z M739,33v-5H734v5H739z"/>
		<path class="st0" d="M761.7,44.5l5.2,4.6c-3.9,3.7-8.2,7-12.8,10c-1.6-2-3.2-3.9-4.7-5.5C753.9,51.1,758,48.1,761.7,44.5z
			 M751.6,12.9c16.9,0.1,32.2-0.6,46-2l1,5.7c-6.9,0.7-14.2,1.2-21.7,1.6c-3.6,2.2-7.4,4.2-11.4,6.2l17.1-0.8c2.6-1.4,5.2-3,7.9-4.6
			l4.9,4.9c-9.7,5.3-19.9,10.1-30.8,14.2c7.4-0.3,14.9-0.8,22.4-1.3c-1.3-1.3-2.6-2.5-3.8-3.6l4.8-3.9c2.7,2.3,6.9,6.4,12.6,12.2
			l-4.9,4.5c-1.2-1.4-2.4-2.6-3.5-3.9l-12.5,0.5v12.2c0,1.7-0.5,3.1-1.5,4c-1,0.9-2.6,1.4-4.7,1.5c-2.1,0.1-4.9,0.1-8.4,0.1
			c-0.3-2.5-0.8-4.9-1.3-7c1.7,0.1,3.5,0.2,5.4,0.2c1.4,0,2.3-0.2,2.8-0.5c0.4-0.3,0.7-0.9,0.7-1.8v-8.4c-7.7,0.4-13.6,0.8-17.7,1.3
			l-1.8-6.4c5.8-2.2,12.1-5,18.9-8.5c-6.8,0.4-12.1,0.9-15.8,1.4l-1.9-6.3c3.8-1.4,7.7-3.3,11.7-5.7l-13.2,0.4
			C752.5,17.1,752.1,15.1,751.6,12.9z M787.9,44c3.8,2.6,8.1,5.8,12.9,9.6l-4.8,5c-3.7-3.2-7.8-6.5-12.5-10L787.9,44z"/>
		<path class="st0" d="M812.1,39.7l7.7-0.9c-0.3,2.1-0.4,4.1-0.4,5.9c-5.6,0.3-10.3,0.8-14.1,1.4l-1.6-5.7c2-2,4.4-5.1,7.2-9.4
			c-2.7,0.2-4.9,0.4-6.7,0.7l-1.9-5.8c3.3-4.5,6.2-10,8.9-16.6l6.8,2.7c-2.5,4.7-5.2,9.2-8.2,13.3c1.4,0,3.1-0.1,4.9-0.2l2.4-3.9
			l5.4,2.9C818.9,29.7,815.4,34.9,812.1,39.7z M847.7,44.6c2.1,1,4.1,1.9,6.2,2.6c-0.5,5.3-1.3,8.7-2.4,10.1c-1.2,1.5-3,2.2-5.5,2.2
			h-3.1c-4,0-6-2.2-6-6.6V36.5l-4.2,0.3c-0.2,7.6-1.3,13.1-3.5,16.5c-2.1,3.5-4.7,5.9-7.7,7.5c-1.4-1.6-3.2-3.4-5.1-5.4
			c-4.6,0.5-9,1-13,1.6l-0.6-6.9c3.4-0.2,9.3-0.9,17.6-1.9c-0.1,1.3-0.1,2.7-0.2,4.2c3.8-2.5,5.7-7.5,5.9-15
			c-1.9,0.2-3.5,0.5-4.6,0.7l-1.9-6.3c2.7-1.7,5.7-5.4,8.8-11h-8.7V15h11.5c-0.6-1.4-1.2-2.8-1.9-4.3l7.7-1.4
			c0.9,1.9,1.8,3.8,2.7,5.7h13v5.9h-16.5c-2.3,3.5-4.9,7-7.8,10.4c4.3-0.2,9.1-0.4,14.3-0.7c-1.2-1.8-2.4-3.6-3.7-5.4l5.2-2.9
			c3.7,4.8,6.8,9.3,9.4,13.5l-5.6,3.4c-0.6-1.1-1.2-2.1-1.8-3.2l-2.5,0.1V51c0,1.3,0.4,2,1.3,2h0.5c0.8,0,1.3-0.4,1.6-1.3
			C847.2,50.9,847.5,48.5,847.7,44.6z"/>
	</g>
</g>
</svg>
