<?xml version="1.0" encoding="utf-8"?>
<!-- Generator: Adobe Illustrator 21.0.0, SVG Export Plug-In . SVG Version: 6.00 Build 0)  -->
<svg version="1.1" id="图层_1" xmlns="http://www.w3.org/2000/svg" xmlns:xlink="http://www.w3.org/1999/xlink" x="0px" y="0px"
	 viewBox="0 0 484 40" style="enable-background:new 0 0 484 40;" xml:space="preserve">
<style type="text/css">
	.st0{fill:#FFFFFF;}
</style>
<g>
	<g>
		<polygon class="st0" points="17.1,0.5 17.1,8.4 20.2,8.4 20.2,3.7 45.6,3.7 45.6,36.3 20.2,36.3 20.2,31.6 17.1,31.6 17.1,39.5 
			48.8,39.5 48.8,0.5 		"/>
		<path class="st0" d="M20.2,10.9h-3.2v14.3c0,2.4,0.6,3.8,4,3.8h3.3v-2.5h-2.4c-1.3,0-1.7,0-1.7-1.6v-8.7h4.2v-2.5h-4.2V10.9z"/>
		<path class="st0" d="M2.5,13.9c0,0.4,0,2.1,0,2.5c8.7-1.5,9.1-0.1,9.1,2.2c0,0.2,0,0.6,0,0.7C4,18.8,1.5,20.4,1.5,24
			c0,4.8,3.3,5.7,13.3,4.6c0-2.1,0-10.3,0-10.3C14.8,13.4,10.9,12.5,2.5,13.9z M11.7,21.8v4.7c-5.8,0.5-6.9-0.6-6.9-2.4
			C4.8,22.3,6.2,21.4,11.7,21.8z"/>
		<path class="st0" d="M26.9,13.9c0,0.4,0,2.1,0,2.5c8.7-1.5,9.1-0.1,9.1,2.2c0,0.2,0,0.6,0,0.7c-7.7-0.5-10.1,1.1-10.1,4.7
			c0,4.8,3.3,5.7,13.3,4.6c0-2.1,0-10.3,0-10.3C39.2,13.4,35.3,12.5,26.9,13.9z M36.1,21.8v4.7c-5.8,0.5-6.9-0.6-6.9-2.4
			C29.2,22.3,30.6,21.4,36.1,21.8z"/>
	</g>
	<g>
		<path class="st0" d="M65.6,34.2V6.7h26.6v27.4H88v-1H69.7v1.1H65.6z M88,10.3H69.7v19.2H88V10.3z M86.3,20.9h-2.2
			c0.8,0.7,1.6,1.5,2.4,2.3l-1.5,1.4h2V28H70.5v-3.4h6v-3.7h-5.2v-3.4h5.2v-2.1h-5.7V12h15.9v3.4h-6.3v2.1h5.9V20.9z M81.2,22.4
			l1.7-1.5h-2.5v3.7h2.9C82.5,23.7,81.8,23,81.2,22.4z"/>
		<path class="st0" d="M119.3,16.4l2.3,3.3l-4.6,2.1c1.3,3.4,3.5,5.9,6.4,7.6c-1.2,1.1-2.3,2.2-3.3,3.2c-2.5-1.9-4.6-5.1-6.2-9.4
			l-1.3,0.6c0.5,1.5,0.8,3,0.8,4.5c0,1.3-0.1,2.3-0.4,3.1c-0.3,0.8-0.7,1.4-1.3,1.9c-0.6,0.5-1.3,0.8-2,0.9
			c-0.8,0.1-2.6,0.2-5.5,0.2c-0.3-1.3-0.6-2.5-0.9-3.6c-2,1-4.2,2-6.7,2.8c-0.7-1.2-1.4-2.3-2.3-3.5c5.7-1.4,10.4-3.5,14-6.3
			c-0.2-0.4-0.3-0.8-0.5-1.1c-3.2,2.2-6.8,3.9-10.9,5l-2-3c4.6-1,8.4-2.4,11.5-4.2c-0.2-0.3-0.5-0.6-0.7-0.9c-2.6,1.2-5.5,2.2-8.7,3
			c-0.6-1.1-1.3-2-1.9-3c4-0.7,7.3-1.7,10.1-3.1h-4.8v-3.2h17v3.2h-6.4c-0.6,0.4-1.2,0.8-1.9,1.2c0.8,1,1.6,2,2.1,3
			C114.4,19.2,117.1,17.7,119.3,16.4z M105.7,6.1l5-0.6c0.3,0.8,0.5,1.7,0.8,2.7h10.9v7.4h-4v-4H99.2v4h-4V8.1h11.3
			C106.2,7.3,106,6.6,105.7,6.1z M103.7,30.5c1.2,0.1,2.2,0.2,3,0.2c1.8,0,2.6-0.9,2.6-2.6c0-0.4,0-0.7-0.1-1.2
			C107.6,28.3,105.7,29.5,103.7,30.5z"/>
		<path class="st0" d="M124.8,31.1l-0.7-3.9l1.5-0.2V10.7h-1.2V7.2h12.7v3.4h-1.2v14.7l1.7-0.3c-0.1,1.5-0.2,2.7-0.2,3.7l-1.5,0.2
			v5.3h-3.5v-4.7L124.8,31.1z M129.1,13.7h3.3v-3h-3.3V13.7z M129.1,19.9h3.3v-3h-3.3V19.9z M132.4,26v-3h-3.3v3.4L132.4,26z
			 M140.8,24.1l3.2,1.5c-1.7,3.6-3.3,6.5-4.8,8.8c-1.3-0.9-2.3-1.5-3.1-2C138,29.9,139.6,27.1,140.8,24.1z M138.1,7.4h13.6v14.9
			h-13.6V7.4z M147.9,11h-6.1v7.9h6.1V11z M148.6,24.2c1.7,2.8,3.3,5.6,4.7,8.4l-3.3,1.7c-1.5-3.2-2.9-6.1-4.4-8.6L148.6,24.2z"/>
		<path class="st0" d="M162.5,6.1h4.3v23h3.7v-23h4.2v15.8c1.6-3.2,3.1-6.8,4.6-10.9l3.8,1.6c-1.5,3.7-3.3,7.7-5.3,12l-3.1-1.4v5.9
			h8.4v4h-28.9v-4h8.2v-5.8l-3.3,1.4c-1.6-4.5-3.2-8.7-4.8-12.5l3.5-1.6c1.7,3.8,3.2,7.4,4.6,10.9V6.1z"/>
		<path class="st0" d="M185.8,19.7l-1.7-3.9c2.4-1.3,4.7-2.6,6.7-3.9l1.7,3.7C189.7,17.1,187.5,18.5,185.8,19.7z M196.8,24h4.3
			c-0.2,1.2-0.4,2.2-0.8,3.2c3.2,0.8,7.3,2,12.1,3.5l-2,3.8c-2.6-1-6.6-2.4-12-4.1c-1.9,2.2-6,3.6-12.2,4.2c-0.5-1.1-1.1-2.4-2-4
			c3.7-0.2,6.7-0.7,8.9-1.5C195.4,28.2,196.6,26.5,196.8,24z M184.6,8.6l2.4-3c2,1.3,3.6,2.4,4.6,3.2l-2.6,3.3
			C187.7,10.8,186.2,9.7,184.6,8.6z M212.3,7.5v2.8l-2,3.6l-3.1-1.1l0.9-1.9h-4.3c-0.1,0.3-0.2,0.7-0.3,1c1.8,2.6,4.9,4,9.4,4.4
			c-0.7,1.4-1.3,2.6-1.7,3.6c-4.4-0.6-7.5-2.1-9.2-4.7c-1.6,2.4-4.3,4-8,4.6h15.5v8.2h-4.1v-4.7h-14v5.1h-4.1v-8.6h5.3l-1.8-3.1
			c5.4-0.7,8.4-2.6,9-5.8h-3.2c-0.7,1.2-1.5,2.2-2.2,3.2c-0.8-0.6-1.9-1.2-3.2-2c1.8-1.9,3.1-4.1,4.1-6.5l4,0.3
			c-0.3,0.6-0.5,1.2-0.8,1.8H212.3z"/>
		<path class="st0" d="M213.9,22.5c1.5-2.6,2.7-5.2,3.4-7.9h-3.2v-3.8h3.5V5.7h3.7v5.1h2.9v2c2.1-2.3,3.8-4.7,5.1-7.4l4.1,0.6
			c-0.4,0.8-0.9,1.6-1.3,2.4h9.5v3.4c-1.2,2.2-2.8,4-4.7,5.5c1.7,0.5,3.7,1,6.1,1.4c-0.4,1.2-0.7,2.4-0.9,3.8
			c-3.6-0.8-6.6-1.7-8.9-2.9c-2.4,1.1-5.3,2.1-8.8,2.9l-0.3-0.7l-1.2,1.5c-0.5-0.4-1.1-0.9-1.6-1.4v12.6h-3.7v-12
			c-0.8,1.9-1.7,3.7-2.7,5.5C214.5,25.9,214.2,24.1,213.9,22.5z M223.4,18.9c2.5-0.5,4.6-1.1,6.3-1.8c-0.9-0.7-1.6-1.5-2.3-2.4
			c-0.7,0.7-1.3,1.4-2,2c-0.6-0.8-1.3-1.5-1.8-2.2h-2.3v2.9L223.4,18.9z M225.2,34.4v-12H241v11.9H237v-1.5h-7.8v1.5H225.2z
			 M237,26.1h-7.8v3.2h7.8V26.1z M229.8,12c1,1.5,2.1,2.6,3.4,3.5c1.6-1,2.8-2.3,3.7-3.7h-7L229.8,12z"/>
		<path class="st0" d="M262.8,13l1.7-1.6h-3.1c-0.5,0.9-1,1.9-1.5,2.8h3.7l-1.6,1.1c3,2,6.7,3.6,11.2,4.7c-0.7,1.1-1.4,2.3-2.1,3.6
			c-2-0.7-4-1.6-6-2.6v1.9h-4.7v1.5h9.9v3.1h-5.1l2.8,1.3c-0.4,0.5-0.8,1-1.2,1.5h5.3v3.2h-27.2v-3.2h5.3c-0.3-0.5-0.7-1.1-1.1-1.6
			l2.8-1.2h-5.4v-3.1h9.8v-1.5h-4.6v-1.7c-1.9,0.9-3.8,1.8-5.9,2.6c-0.6-1.1-1.4-2.3-2.2-3.5c4.1-1.1,7.6-2.5,10.5-4.3H252V5.8h3.7
			v9.4c0.4-0.3,0.8-0.6,1.2-0.9h1.9c-0.8-0.6-1.6-1.2-2.4-1.7c1.6-2.4,2.8-4.7,3.4-6.8h3.8c-0.3,0.9-0.5,1.7-0.9,2.5h9.5v3.1h-6
			c1.4,1,2.6,2,3.7,2.9l-2.5,2.5C266.2,15.7,264.6,14.4,262.8,13z M249.4,15.8h-3.7V6.6h3.7V15.8z M254.1,30.4h2.3v-2.9h-4.1
			C252.9,28.4,253.5,29.4,254.1,30.4z M258.7,17.3c-1.3,0.9-2.8,1.8-4.3,2.6h8.5C261.4,19.1,260,18.2,258.7,17.3z M264.5,27.6h-4.1
			v2.9h2.3C263.4,29.4,264,28.5,264.5,27.6z"/>
		<path class="st0" d="M300.6,22.4v3.6h-9.8v4c3.2,0.1,7.2,0,12-0.1c-0.5,1.6-1,2.9-1.3,3.9c-6.9,0-12-0.1-15.1-0.3
			c-3.1-0.2-5.4-1.5-6.6-4c-1,2-2.2,3.7-3.6,5c-0.9-1.3-1.7-2.4-2.4-3.4c2.4-2.5,4-6,4.7-10.5l3.9,0.5c-0.3,1.5-0.6,2.9-0.9,4.2
			c1,2.6,2.7,4,5.2,4.4V19.2h-12.1v-3.6h27.6v3.6h-11.3v3.2H300.6z M285.4,6.5l4.5-1.1c0.4,1,0.8,2.1,1.3,3.4h10.5v5.8h-4v-2.2
			h-18.6v2.2h-4V8.8h11.3L285.4,6.5z"/>
		<path class="st0" d="M304,13.7H314v-2.3h-7.7V8.1h7.7V5.5h4v2.6h7v2.8c1.3-1.2,2.6-2.5,3.9-3.9l2.9,2.2c-1.5,1.6-3.1,3.1-4.7,4.5
			h5.8v3.3h-10.2c-0.9,0.6-1.8,1.1-2.7,1.7h10.5V22h-12.7l-0.4,1.8h11.1c-0.2,2.2-0.5,4.1-0.7,5.6s-0.9,2.7-2,3.4
			c-1.1,0.8-2.6,1.2-4.5,1.2c-1.8,0-3.8,0-6-0.1c-0.3-1.5-0.5-2.8-0.9-3.9c1.9,0.2,4,0.3,6.4,0.3c0.8,0,1.4-0.1,1.9-0.4
			c0.5-0.3,0.7-0.7,0.8-1.2c0.1-0.5,0.2-1,0.3-1.6h-11.6l1.3-5.1H313c-2.5,1-5.2,1.9-8.1,2.8c-0.3-1-0.7-2.2-1.2-3.6
			c5-1.1,9.2-2.5,12.5-4.1H304V13.7z M324.5,11.4H318v2.3h3.6C322.6,13,323.5,12.2,324.5,11.4z"/>
		<path class="st0" d="M344.3,19.7h4.2c-0.1,0.9-0.2,1.9-0.4,2.7h12.3l-0.5,6.7c-0.1,1.1-0.4,2-1,2.7c-0.6,0.7-1.3,1.3-2.3,1.6
			c-1,0.3-2.9,0.5-5.7,0.5c-1,0-2,0-3.1-0.1c-0.2-1.1-0.5-2.5-0.9-3.9c2.2,0.2,4,0.3,5.6,0.3c0.8,0,1.5-0.1,2-0.4
			c0.5-0.3,0.8-0.6,0.9-1.1c0.1-0.5,0.2-1.4,0.3-2.8h-8.5c-1.5,4.1-5.1,6.9-10.8,8.5c-0.8-1-1.7-2.2-2.7-3.4
			c4.5-1.1,7.5-2.8,8.9-5.1h-7.9v-3.5h9.1C344,21.6,344.1,20.7,344.3,19.7z M360.2,8.1v3.2c-1.9,1.8-4.1,3.3-6.8,4.7
			c2.8,0.6,5.8,1,9.2,1c-0.6,1.4-1.1,2.7-1.6,3.9c-5-0.5-9.3-1.4-12.8-2.7c-3.8,1.3-8.1,2.4-13,3.1c-0.4-1-0.9-2.3-1.6-3.7
			c3.6-0.3,6.9-0.9,9.9-1.6c-1.4-0.8-2.6-1.7-3.6-2.7c-1.1,0.9-2.4,1.8-3.6,2.6c-0.7-0.9-1.5-1.9-2.4-3c3.8-2.2,6.6-4.6,8.4-7.2h4.4
			c-0.6,0.9-1.1,1.7-1.8,2.5H360.2z M348.5,14.4c2.3-0.9,4.2-1.9,5.9-3.1H343C344.6,12.5,346.4,13.6,348.5,14.4z"/>
		<path class="st0" d="M364.5,13.5h1.5c-0.4-0.6-1.2-1.5-2.3-2.7c2.1-1.6,3.7-3.3,4.6-5.3h4c-0.3,0.7-0.6,1.4-1,2h7.5v2.8h-5.6
			c0.6,0.6,1.2,1.3,1.7,1.9l-1.7,1.3h2.8c-0.2-0.5-0.4-1-0.5-1.5l3.3-0.6c0.2,0.7,0.4,1.4,0.6,2.1h6.7c-0.8-1-1.5-1.8-2.1-2.5
			l0.9-0.7h-1.3c-0.6,1-1.4,2-2.2,2.8c-0.6-0.4-1.6-1.1-3.1-2.1c1.4-1.5,2.6-3.4,3.4-5.5h4.1c-0.2,0.7-0.5,1.4-0.8,2h6.8v2.8h-4.4
			c0.5,0.6,1,1.1,1.5,1.7l-2,1.5h4.8v4.2h-4v-1.2h-19.4v1.2h-4V13.5z M366.1,13.5h5.9c-0.5-0.7-1.1-1.4-1.8-2.3l1.2-0.9h-1.9
			C368.4,11.5,367.3,12.6,366.1,13.5z M388.9,18.3v7h-17.7v1.3h18.6v8h-3.8v-0.9h-14.8v0.9h-4V18.3H388.9z M385.1,22.5v-1.6h-13.9
			v1.6H385.1z M386.1,29.2h-14.8v1.7h14.8V29.2z"/>
		<path class="st0" d="M394.3,32.8l-0.8-4.1l3.5-0.8v-7.2h-2.8v-3.6h2.8V11H394V7.3h9.6V11h-2.9v6.1h2.7v3.6h-2.7V27
			c1-0.3,2.1-0.6,3-0.9c-0.1,1.4-0.1,2.7,0,4h7.2v-2.5h-6.7v-3.3h6.7v-2.1h-6.5V7h16.8v15.2h-6.5v2.1h6.7v3.3h-6.7v2.5h7.9v3.3h-20
			v-3.1C400,31.1,397.2,31.9,394.3,32.8z M408.1,13h2.9v-2.8h-2.9V13z M408.1,18.8h2.9V16h-2.9V18.8z M417.5,10.2h-2.9V13h2.9V10.2z
			 M417.5,18.8V16h-2.9v2.8H417.5z"/>
		<path class="st0" d="M430.3,25.4l3,2.6c-2.2,2.1-4.6,4-7.2,5.7c-0.9-1.1-1.8-2.2-2.7-3.1C425.9,29.1,428.2,27.4,430.3,25.4z
			 M424.6,7.5c9.5,0,18.2-0.3,26-1.1l0.6,3.2c-3.9,0.4-8,0.7-12.3,0.9c-2,1.2-4.2,2.4-6.4,3.5l9.7-0.4c1.5-0.8,2.9-1.7,4.5-2.6
			l2.7,2.7c-5.5,3-11.3,5.7-17.4,8c4.2-0.2,8.4-0.4,12.7-0.7c-0.8-0.7-1.5-1.4-2.1-2l2.7-2.2c1.5,1.3,3.9,3.6,7.1,6.9l-2.8,2.5
			c-0.7-0.8-1.4-1.5-2-2.2l-7.1,0.3v6.9c0,1-0.3,1.7-0.9,2.3c-0.6,0.5-1.5,0.8-2.6,0.8c-1.2,0-2.8,0.1-4.7,0.1
			c-0.2-1.4-0.4-2.7-0.8-4c1,0.1,2,0.1,3.1,0.1c0.8,0,1.3-0.1,1.6-0.3c0.3-0.2,0.4-0.5,0.4-1v-4.7c-4.4,0.2-7.7,0.5-10,0.7l-1-3.6
			c3.3-1.2,6.9-2.8,10.7-4.8c-3.9,0.2-6.9,0.5-9,0.8l-1.1-3.6c2.1-0.8,4.3-1.9,6.6-3.2l-7.5,0.2C425.1,9.9,424.9,8.7,424.6,7.5z
			 M445.1,25.1c2.2,1.5,4.6,3.3,7.3,5.4l-2.7,2.8c-2.1-1.8-4.4-3.7-7-5.6L445.1,25.1z"/>
		<path class="st0" d="M458.8,22.6l4.3-0.5c-0.2,1.2-0.2,2.3-0.2,3.3c-3.2,0.2-5.8,0.4-8,0.8l-0.9-3.2c1.1-1.1,2.5-2.9,4.1-5.3
			c-1.5,0.1-2.8,0.2-3.8,0.4l-1.1-3.3c1.9-2.5,3.5-5.7,5-9.4l3.8,1.5c-1.4,2.7-3,5.2-4.6,7.5c0.8,0,1.7,0,2.8-0.1l1.3-2.2l3,1.6
			C462.6,17,460.7,20,458.8,22.6z M479,25.4c1.2,0.6,2.3,1.1,3.5,1.5c-0.3,3-0.7,4.9-1.4,5.7c-0.7,0.8-1.7,1.3-3.1,1.3h-1.7
			c-2.2,0-3.4-1.2-3.4-3.7v-9.3l-2.4,0.2c-0.1,4.3-0.8,7.4-2,9.3c-1.2,2-2.6,3.4-4.4,4.2c-0.8-0.9-1.8-1.9-2.9-3.1
			c-2.6,0.3-5.1,0.6-7.4,0.9l-0.3-3.9c1.9-0.1,5.3-0.5,10-1.1c0,0.7-0.1,1.5-0.1,2.4c2.1-1.4,3.2-4.2,3.3-8.5
			c-1.1,0.1-2,0.3-2.6,0.4l-1.1-3.6c1.5-1,3.2-3,5-6.2h-4.9V8.7h6.5c-0.3-0.8-0.7-1.6-1.1-2.5l4.4-0.8c0.5,1.1,1,2.1,1.5,3.2h7.3V12
			h-9.4c-1.3,2-2.7,3.9-4.4,5.9c2.4-0.1,5.1-0.2,8.1-0.4c-0.7-1-1.4-2-2.1-3.1l2.9-1.7c2.1,2.7,3.8,5.3,5.3,7.6l-3.2,1.9
			c-0.3-0.6-0.7-1.2-1-1.8l-1.4,0.1V29c0,0.8,0.3,1.1,0.8,1.1h0.3c0.5,0,0.8-0.2,0.9-0.7C478.7,29,478.8,27.6,479,25.4z"/>
	</g>
</g>
</svg>
